<svg version="1.1" xmlns="http://www.w3.org/2000/svg" width="1440" height="438">
  <!-- Definir un gradiente lineal -->
  <linearGradient id="gradiente" x1="0%" y1="0%" x2="100%" y2="0%">
    <stop offset="0%" style="stop-color: #a3baff00;" />
    <stop offset="25%" style="stop-color: #a3baff;" />
    <stop offset="75%" style="stop-color: #934bea;" />
    <stop offset="100%" style="stop-color: #934bea00;" />
  </linearGradient>

  <!-- Aplicar el gradiente al path -->
  <path d="M0 0 C42.35579515 0 42.35579515 0 60 3 C61.76005371 3.29801514 61.76005371 3.29801514 63.55566406 3.60205078 C108.11671395 11.38245905 147.23573393 28.8029366 185.87255859 51.95874023 C221.04414925 73.03675023 256.83310856 90.81858313 297 100 C297.83853516 100.19432617 298.67707031 100.38865234 299.54101562 100.58886719 C325.63739738 106.48990379 352.49728211 107.38596931 379.14334106 107.90887451 C386.81651746 108.06093679 394.48839694 108.26584424 402.16015625 108.4765625 C403.28087304 108.5071771 403.28087304 108.5071771 404.42423058 108.53841019 C460.80843628 110.1049202 514.10539885 121.23169392 568.13580322 136.72412109 C625.71039009 153.21688507 681.8831525 161.59049237 741.79299927 162.38760376 C807.73409454 163.30614426 870.65241518 168.88164084 934.95117188 183.82958984 C1012.83325893 201.91624697 1089.02014085 206.45276037 1168.76934569 206.50415791 C1178.19898886 206.51081876 1187.62857082 206.53446052 1197.05818239 206.55872939 C1213.8615302 206.60155095 1230.6648744 206.63176892 1247.46826172 206.65356445 C1263.74920417 206.67471045 1280.03011729 206.7021012 1296.31103516 206.73754883 C1297.82735195 206.74084707 1297.82735195 206.74084707 1299.3743014 206.74421193 C1304.44776507 206.75528495 1309.52122847 206.76647712 1314.59469175 206.77772844 C1356.39643563 206.87027836 1398.19819496 206.9419481 1440 207 C1440 214.92 1440 222.84 1440 231 C1437.29491839 231.00496522 1437.29491839 231.00496522 1434.53518867 231.01003075 C1391.58321118 231.08930249 1348.63126411 231.17861676 1305.67933298 231.28005161 C1300.37557762 231.29256826 1295.07182208 231.30500138 1289.76806641 231.31738281 C1288.18445595 231.3210818 1288.18445595 231.3210818 1286.56885336 231.32485552 C1269.54606728 231.36441877 1252.52327469 231.39723822 1235.50046982 231.42749982 C1217.99187419 231.4587776 1200.48330578 231.49745461 1182.97474086 231.54279006 C1172.19889025 231.5704654 1161.42305921 231.59258748 1150.64718293 231.60726251 C1143.22563325 231.61792631 1135.80412181 231.63587248 1128.38260116 231.65916704 C1124.12126792 231.67233914 1119.85998747 231.68266612 1115.59863281 231.68421364 C1086.56131891 231.69835787 1057.60280664 232.67615487 1028.75 236.1875 C1027.85413177 236.29492523 1026.95826355 236.40235046 1026.0352478 236.51303101 C1000.97171944 239.54760168 976.44225822 244.30970445 951.80859375 249.796875 C951.035245 249.96907248 950.26189625 250.14126995 949.46511269 250.31868553 C941.60758424 252.06968169 933.75243855 253.83035472 925.90472412 255.62486553 C899.61491064 261.63235492 873.09888809 267.4337851 846.2199707 270.05175781 C844.1586991 270.25280917 842.10006795 270.47276433 840.04101562 270.6953125 C835.3653989 271.18809504 830.68458211 271.60251868 826 272 825.03441162 272.0838797 824.06882324 272.1677594 823.07397461 272.25418091 C807.48115202 273.57292785 791.92955056 274.21930279 776.2890625 274.52734375 C775.37472506 274.54535412 774.46038761 274.56336449 773.51834297 274.58192062 C764.99474894 274.7463872 756.47085117 274.89192888 747.94677734 275.02905273 C727.86442301 275.35741317 707.8462763 275.86540842 687.81640625 277.421875 C687.03428898 277.48195677 686.25217171 277.54203854 685.44635391 277.60394096 C644.92735982 280.77842853 606.06819375 290.22839295 567 301 C566.11503845 301.24399536 565.2300769 301.48799072 564.31829834 301.73937988 C560.77723338 302.71608615 557.23634102 303.69341596 553.69558716 304.67124939 C497.28073364 320.25005185 442.70550912 328.53024857 384.1875 329.5 C358.05020646 329.93113548 358.05020646 329.93113548 332 332 C330.91525391 332.11682129 329.83050781 332.23364258 328.71289062 332.35400391 C302.96034959 335.25098072 276.93158994 340.87362047 253 351 C252.25153809 351.31437012 251.50307617 351.62874023 250.73193359 351.95263672 C239.93740637 356.52875092 229.41779451 361.62796342 219 367 C218.35305176 367.3304834 217.70610352 367.6609668 217.03955078 368.00146484 C208.06604633 372.59591689 199.31686009 377.51862942 190.625 382.625 C170.84965596 394.23409095 151.01402843 405.75626693 130 415 C129.27683594 415.3187207 128.55367187 415.63744141 127.80859375 415.96582031 C87.19699228 433.52304581 43.77952313 438 0 438 C0 293.46 0 148.92 0 0 Z" fill="url(#gradiente)" transform="translate(0,0)"/>
</svg>
