<?xml version="1.0" encoding="utf-8"?>
<!-- Generator: Adobe Illustrator 27.0.0, SVG Export Plug-In . SVG Version: 6.00 Build 0)  -->
<svg version="1.1" id="Capa_1" xmlns="http://www.w3.org/2000/svg" xmlns:xlink="http://www.w3.org/1999/xlink" x="0px" y="0px"
	 viewBox="0 0 438 1440" style="enable-background:new 0 0 438 1440;" xml:space="preserve">
<style type="text/css">
	.st0{fill:url(#SVGID_1_);}
</style>
<linearGradient id="SVGID_1_" gradientUnits="userSpaceOnUse" x1="-79.2931" y1="1139.9288" x2="-78.2931" y2="1139.9288" gradientTransform="matrix(8.817457e-14 1440 438 -2.681977e-14 -499069.8125 114182)">
	<stop  offset="0" style="stop-color:#5860E500"/>
	<stop  offset="0.25" style="stop-color:#5860E5"/>
	<stop  offset="0.5" style="stop-color:#A768F5"/>
	<stop  offset="0.75" style="stop-color:#DC9C76"/>
	<stop  offset="1" style="stop-color:#DC9C7600"/>
</linearGradient>
<path class="st0" d="M438,0c0,42.4,0,42.4-3,60c-0.3,1.8-0.3,1.8-0.6,3.6c-7.8,44.6-25.2,83.7-48.4,122.3
	c-21.1,35.2-38.9,71-48,111.1c-0.2,0.8-0.4,1.7-0.6,2.5c-5.9,26.1-6.8,53-7.3,79.6c-0.2,7.7-0.4,15.3-0.6,23c0,1.1,0,1.1-0.1,2.3
	c-1.6,56.4-12.7,109.7-28.2,163.7c-16.5,57.6-24.9,113.7-25.7,173.7c-0.9,65.9-6.5,128.9-21.4,193.2
	c-18.1,77.9-22.6,154.1-22.7,233.8c0,9.4,0,18.9-0.1,28.3c0,16.8-0.1,33.6-0.1,50.4c0,16.3,0,32.6-0.1,48.8c0,1.5,0,1.5,0,3.1
	c0,5.1,0,10.1,0,15.2c-0.1,41.8-0.2,83.6-0.2,125.4c-7.9,0-15.8,0-24,0c0-2.7,0-2.7,0-5.5c-0.1-43-0.2-85.9-0.3-128.9
	c0-5.3,0-10.6,0-15.9c0-1.6,0-1.6,0-3.2c0-17-0.1-34-0.1-51.1c0-17.5-0.1-35-0.1-52.5c0-10.8,0-21.6-0.1-32.3c0-7.4,0-14.8-0.1-22.3
	c0-4.3,0-8.5,0-12.8c0-29-1-58-4.5-86.8c-0.1-0.9-0.2-1.8-0.3-2.7c-3-25.1-7.8-49.6-13.3-74.2c-0.2-0.8-0.3-1.5-0.5-2.3
	c-1.8-7.9-3.5-15.7-5.3-23.6c-6-26.3-11.8-52.8-14.4-79.7c-0.2-2.1-0.4-4.1-0.6-6.2c-0.5-4.7-0.9-9.4-1.3-14c-0.1-1-0.2-1.9-0.3-2.9
	c-1.3-15.6-2-31.1-2.3-46.8c0-0.9,0-1.8-0.1-2.8c-0.2-8.5-0.3-17-0.4-25.6c-0.3-20.1-0.8-40.1-2.4-60.1c-0.1-0.8-0.1-1.6-0.2-2.4
	c-3.2-40.5-12.6-79.4-23.4-118.4c-0.2-0.9-0.5-1.8-0.7-2.7c-1-3.5-2-7.1-2.9-10.6c-15.6-56.4-23.9-111-24.8-169.5
	c-0.4-26.1-0.4-26.1-2.5-52.2c-0.1-1.1-0.2-2.2-0.4-3.3C102.7,303,97.1,276.9,87,253c-0.3-0.7-0.6-1.5-1-2.3
	c-4.6-10.8-9.7-21.3-15-31.7c-0.3-0.6-0.7-1.3-1-2c-4.6-9-9.5-17.7-14.6-26.4C43.8,170.8,32.2,151,23,130c-0.3-0.7-0.6-1.4-1-2.2
	C4.5,87.2,0,43.8,0,0C144.5,0,289.1,0,438,0z"/>
</svg>
